<?xml version="1.0" encoding="UTF-8" standalone="no"?>
<!DOCTYPE svg PUBLIC "-//W3C//DTD SVG 1.1//EN" "http://www.w3.org/Graphics/SVG/1.1/DTD/svg11.dtd">
<svg width="100%" height="100%" viewBox="0 0 111 91" version="1.1" xmlns="http://www.w3.org/2000/svg" xmlns:xlink="http://www.w3.org/1999/xlink" xml:space="preserve" xmlns:serif="http://www.serif.com/" style="fill-rule:evenodd;clip-rule:evenodd;stroke-linejoin:round;stroke-miterlimit:2;">
    <g transform="matrix(1,0,0,1,-0.233102,-0.799998)">
        <g id="_36c8b565-28d2-4219-9b10-13bf2d73d6e5" serif:id="36c8b565-28d2-4219-9b10-13bf2d73d6e5">
        </g>
        <g id="f3672d2f-363f-4eab-926b-7f6855617e60" transform="matrix(1.52801,0,0,1.52801,-17.6447,-34.0387)">
            <clipPath id="_clip1">
                <rect x="11.7" y="22.276" width="74.563" height="58.9"/>
            </clipPath>
            <g clip-path="url(#_clip1)">
                <path d="M11.7,71.5C11.7,65.8 16.7,61.5 22.4,61.5L25.6,61.5L25.6,44.2C25.4,35.6 31.7,30.4 41.6,30.3L54.5,30.3L61.3,26.9L61.3,25.6C61.3,24.1 62.4,22.8 63.8,22.8C64.7,22.8 65.5,23.4 66,24.2C66.4,23.4 67.2,22.8 68.2,22.8C69.6,22.8 70.7,24.1 70.7,25.6L70.7,26.9L77.5,29.4L78.1,30.9L84.3,34.7L84.3,35.3L77.6,40.5C70.6,40.1 65.5,42.2 62.8,47.5L68.5,47.5L68.6,53.7L64.6,53.7L66.1,51.9L55.9,51.9C55.9,52 56,52 56,52.1C57,53.2 57.6,54.6 57.6,56.1C57.6,59.1 55.3,61.6 52.3,62.3L60.1,62.3L63.1,65.5L22.4,65.5C18.5,65.5 15.6,68.4 15.6,71.6C15.6,74.8 18.5,77.7 22.4,77.7L36.4,77.7C37.5,77.7 38.4,78.6 38.4,79.7C38.4,80.8 37.5,81.7 36.4,81.7L22.4,81.7C16.6,81.6 11.7,77.2 11.7,71.5Z" style="fill:rgb(220,185,51);fill-rule:nonzero;"/>
            </g>
        </g>
    </g>
</svg>
